<?xml version="1.0" encoding="UTF-8" standalone="no"?>
<!-- Created with Inkscape (http://www.inkscape.org/) -->

<svg
   xmlns:dc="http://purl.org/dc/elements/1.1/"
   xmlns:cc="http://creativecommons.org/ns#"
   xmlns:rdf="http://www.w3.org/1999/02/22-rdf-syntax-ns#"
   xmlns:svg="http://www.w3.org/2000/svg"
   xmlns="http://www.w3.org/2000/svg"
   xmlns:sodipodi="http://sodipodi.sourceforge.net/DTD/sodipodi-0.dtd"
   xmlns:inkscape="http://www.inkscape.org/namespaces/inkscape"
   width="104mm"
   height="104mm"
   viewBox="0 0 103.99999 104"
   version="1.1"
   id="svg8"
   inkscape:export-filename="/Volumes/ramdisk/icona.png"
   inkscape:export-xdpi="125.05"
   inkscape:export-ydpi="125.05"
   inkscape:version="0.92.4 (5da689c313, 2019-01-14)"
   sodipodi:docname="icona.svg">
  <defs
     id="defs2" />
  <sodipodi:namedview
     id="base"
     pagecolor="#ffffff"
     bordercolor="#666666"
     borderopacity="1.0"
     inkscape:pageopacity="0.0"
     inkscape:pageshadow="2"
     inkscape:zoom="0.52748802"
     inkscape:cx="189"
     inkscape:cy="197"
     inkscape:document-units="mm"
     inkscape:current-layer="layer1"
     showgrid="false"
     units="mm"
     inkscape:snap-global="false"
     inkscape:window-width="1538"
     inkscape:window-height="1249"
     inkscape:window-x="921"
     inkscape:window-y="14"
     inkscape:window-maximized="0" />
  <metadata
     id="metadata5">
    <rdf:RDF>
      <cc:Work
         rdf:about="">
        <dc:format>image/svg+xml</dc:format>
        <dc:type
           rdf:resource="http://purl.org/dc/dcmitype/StillImage" />
        <dc:title></dc:title>
      </cc:Work>
    </rdf:RDF>
  </metadata>
  <g
     inkscape:label="Livello 1"
     inkscape:groupmode="layer"
     id="layer1"
     transform="translate(0,-192.99999)">
    <path
       style="fill:#ff0000;fill-opacity:0.58644068;stroke:none;stroke-width:12.12448406;stroke-linecap:round;stroke-linejoin:round;stroke-miterlimit:4;stroke-dasharray:none;stroke-opacity:1"
       d="m 196.53516,201.88086 -133.626957,133.625 a 188.97638,188.97638 0 0 0 267.253907,0 z m 22.66601,56.62891 h 13.17774 v 111.43164 h -13.17774 v -12.03125 c -2.7691,4.7743 -6.27821,8.33246 -10.52734,10.67187 -4.20139,2.29167 -9.2615,3.4375 -15.18164,3.4375 -9.69184,0 -17.59397,-3.86719 -23.70508,-11.60156 -6.06337,-7.73438 -9.09375,-17.90365 -9.09375,-30.50781 0,-12.60417 3.03038,-22.77344 9.09375,-30.50782 6.11111,-7.73437 14.01324,-11.60156 23.70508,-11.60156 5.92014,0 10.98025,1.1684 15.18164,3.50781 4.24913,2.29167 7.75824,5.82531 10.52734,10.59961 z m -22.48633,40.31835 c -6.97048,0 -12.46028,2.7704 -16.4707,8.3086 -3.96267,5.49045 -5.94531,13.0816 -5.94531,22.77344 0,9.69184 1.98264,17.30555 5.94531,22.84375 4.01042,5.49045 9.50022,8.23632 16.4707,8.23632 6.97049,0 12.46029,-2.74587 16.47071,-8.23632 4.01041,-5.5382 6.01562,-13.15191 6.01562,-22.84375 0,-9.69184 -2.00521,-17.28299 -6.01562,-22.77344 -4.01042,-5.5382 -9.50022,-8.3086 -16.47071,-8.3086 z"
       transform="matrix(0.26458333,0,0,0.26458333,0,192.99999)"
       id="path817"
       inkscape:connector-curvature="0" />
    <circle
       r="50"
       cy="300.98547"
       cx="167.85986"
       id="circle819"
       style="fill:#ff8bff;fill-opacity:0.73220335;stroke:none;stroke-width:3.20793653;stroke-linecap:round;stroke-linejoin:round;stroke-miterlimit:4;stroke-dasharray:none;stroke-opacity:1" />
    <path
       style="fill:#1f8bff;fill-opacity:1;stroke:none;stroke-width:12.12448406;stroke-linecap:round;stroke-linejoin:round;stroke-miterlimit:4;stroke-dasharray:none;stroke-opacity:1"
       d="M 193.77734,2.234375 A 188.97638,188.97638 0 0 0 62.908203,57.5625 L 196.53516,191.18945 330.16211,57.5625 A 188.97638,188.97638 0 0 0 193.77734,2.234375 Z m -33.12109,18.814453 h 13.25 v 43.398438 c 2.7691,-4.774306 6.25369,-8.30599 10.45508,-10.597657 4.24913,-2.339409 9.30924,-3.509765 15.18164,-3.509765 9.73958,0 17.64171,3.867187 23.70508,11.601562 6.11111,7.734376 9.16601,17.903646 9.16601,30.507813 0,12.604171 -3.0549,22.773441 -9.16601,30.507811 -6.06337,7.73438 -13.9655,11.60156 -23.70508,11.60156 -5.8724,0 -10.93251,-1.14583 -15.18164,-3.4375 -4.20139,-2.33941 -7.68598,-5.89561 -10.45508,-10.66992 v 12.03125 h -13.25 z m 35.66406,40.320313 c -6.97048,0 -12.46028,2.768446 -16.4707,8.30664 -3.96267,5.490452 -5.94336,13.081597 -5.94336,22.773438 0,9.691841 1.98069,17.307511 5.94336,22.845701 4.01042,5.49045 9.50022,8.23438 16.4707,8.23438 6.97049,0 12.43772,-2.74393 16.40039,-8.23438 4.01042,-5.53819 6.01563,-13.15386 6.01563,-22.845701 0,-9.691841 -2.00521,-17.282986 -6.01563,-22.773438 -3.96267,-5.538194 -9.4299,-8.30664 -16.40039,-8.30664 z"
       transform="matrix(0.26458333,0,0,0.26458333,0,192.99999)"
       id="path824"
       inkscape:connector-curvature="0" />
    <path
       style="fill:#fff300;fill-opacity:1;stroke:none;stroke-width:12.12448406;stroke-linecap:round;stroke-linejoin:round;stroke-miterlimit:4;stroke-dasharray:none;stroke-opacity:1"
       d="M 335.50781,62.908203 201.88086,196.53516 335.50781,330.16211 a 188.97638,188.97638 0 0 0 0,-267.253907 z m -11.64843,91.517577 c 4.05815,0 8.02148,0.42969 11.88867,1.28906 3.86718,0.81164 7.61371,2.05361 11.24218,3.72461 v 12.31641 c -3.72395,-2.05295 -7.47048,-3.57943 -11.24218,-4.58203 -3.72396,-1.05035 -7.49696,-1.57617 -11.31641,-1.57617 -8.54601,0 -15.18164,2.72135 -19.9082,8.16406 -4.72657,5.39496 -7.08985,12.98611 -7.08985,22.77344 0,9.78732 2.36328,17.40299 7.08985,22.8457 4.72656,5.39496 11.36219,8.0918 19.9082,8.0918 3.81945,0 7.59245,-0.50131 11.31641,-1.50391 3.7717,-1.05035 7.51823,-2.60135 11.24218,-4.6543 v 12.17383 c -3.67621,1.71875 -7.49435,3.00781 -11.45703,3.86719 -3.91493,0.85937 -8.0931,1.28906 -12.5332,1.28906 -12.07899,0 -21.67535,-3.79557 -28.78906,-11.38672 -7.11372,-7.59114 -10.66992,-17.83203 -10.66992,-30.72265 0,-13.0816 3.58072,-23.36958 10.74218,-30.86524 7.2092,-7.49566 17.06749,-11.24414 29.57618,-11.24414 z"
       transform="matrix(0.26458333,0,0,0.26458333,0,192.99999)"
       id="path826"
       inkscape:connector-curvature="0" />
    <path
       style="fill:#32ac1d;fill-opacity:1;stroke:none;stroke-width:12.12448406;stroke-linecap:round;stroke-linejoin:round;stroke-miterlimit:4;stroke-dasharray:none;stroke-opacity:1"
       d="m 57.564453,62.908203 a 188.97638,188.97638 0 0 0 0,267.253907 L 191.19141,196.53516 Z m 19.523438,91.517577 c 11.601563,0 20.266926,3.00781 25.996089,9.02344 5.72917,6.01562 8.59375,15.1352 8.59375,27.35742 v 45.76172 H 98.5 v -12.17578 c -3.007813,4.86979 -6.756293,8.47504 -11.244141,10.81445 -4.487847,2.29167 -9.977647,3.4375 -16.470703,3.4375 -8.211806,0 -14.753255,-2.29167 -19.623047,-6.875 -4.822048,-4.63108 -7.232422,-10.81445 -7.232421,-18.54883 -10e-7,-9.02343 3.007812,-15.82682 9.023437,-20.41015 6.063368,-4.58334 15.086805,-6.875 27.070313,-6.875 H 98.5 v -1.28907 c 0,-6.06336 -2.005208,-10.74088 -6.015625,-14.03515 -3.962674,-3.34202 -9.548611,-5.01367 -16.757813,-5.01367 -4.583333,0 -9.047959,0.54839 -13.392578,1.64648 -4.344618,1.09809 -8.520833,2.74523 -12.53125,4.94141 v -12.17383 c 4.822049,-1.86198 9.499566,-3.24718 14.035157,-4.1543 4.53559,-0.95486 8.953124,-1.43164 13.25,-1.43164 z m 8.30664,41.82227 c -10.646702,0 -18.023003,1.21744 -22.128906,3.65234 -4.105903,2.4349 -6.158203,6.58854 -6.158203,12.46094 0,4.67882 1.526475,8.40278 4.582031,11.17187 3.103299,2.72136 7.305989,4.08203 12.605469,4.08203 7.304688,0 13.15256,-2.57812 17.544922,-7.73437 C 96.279948,214.67687 98.5,207.7793 98.5,199.18555 v -2.9375 z"
       transform="matrix(0.26458333,0,0,0.26458333,0,192.99999)"
       id="path828"
       inkscape:connector-curvature="0" />
    <path
       inkscape:connector-curvature="0"
       id="path830"
       d="m 125.88571,215.08992 a 50,50 0 0 0 70.71075,1e-5 l -35.35537,-35.35538 z"
       style="fill:#ff0000;fill-opacity:0.66779659;stroke:none;stroke-width:3.20793629;stroke-linecap:round;stroke-linejoin:round;stroke-miterlimit:4;stroke-dasharray:none;stroke-opacity:1" />
    <path
       style="fill:#1f8bff;fill-opacity:0.98305084;stroke:none;stroke-width:3.20793629;stroke-linecap:round;stroke-linejoin:round;stroke-miterlimit:4;stroke-dasharray:none;stroke-opacity:1"
       d="m 196.59639,141.55075 a 50,50 0 0 0 -70.71075,0 l 35.35538,35.35537 z"
       id="path832"
       inkscape:connector-curvature="0" />
    <path
       inkscape:connector-curvature="0"
       id="path834"
       d="m 198.01064,213.67575 a 50,50 0 0 0 0,-70.71075 l -35.35537,35.35537 z"
       style="fill:#fffa00;fill-opacity:0.73220335;stroke:none;stroke-width:3.20793629;stroke-linecap:round;stroke-linejoin:round;stroke-miterlimit:4;stroke-dasharray:none;stroke-opacity:1" />
    <path
       style="fill:#32ac1d;fill-opacity:1;stroke:none;stroke-width:3.20793629;stroke-linecap:round;stroke-linejoin:round;stroke-miterlimit:4;stroke-dasharray:none;stroke-opacity:1"
       d="m 124.47143,142.96496 a 50,50 0 0 0 0,70.71075 l 35.35537,-35.35537 z"
       id="path836"
       inkscape:connector-curvature="0" />
    <path
       inkscape:connector-curvature="0"
       id="path878"
       d="m -85.325415,205.69094 a 50,50 0 0 0 70.710747,10e-6 l -35.355375,-35.35538 z"
       style="fill:#ff0000;fill-opacity:0.66779659;stroke:none;stroke-width:3.20793629;stroke-linecap:round;stroke-linejoin:round;stroke-miterlimit:4;stroke-dasharray:none;stroke-opacity:1" />
    <path
       style="fill:#1f8bff;fill-opacity:0.98305084;stroke:none;stroke-width:3.20793629;stroke-linecap:round;stroke-linejoin:round;stroke-miterlimit:4;stroke-dasharray:none;stroke-opacity:1"
       d="m -14.614667,132.15177 a 50,50 0 0 0 -70.710749,0 l 35.355374,35.35537 z"
       id="path880"
       inkscape:connector-curvature="0" />
    <path
       inkscape:connector-curvature="0"
       id="path882"
       d="m -13.200419,204.27677 a 50,50 0 0 0 0,-70.71075 l -35.355374,35.35537 z"
       style="fill:#fff300;fill-opacity:1;stroke:none;stroke-width:3.20793629;stroke-linecap:round;stroke-linejoin:round;stroke-miterlimit:4;stroke-dasharray:none;stroke-opacity:1" />
    <path
       style="fill:#32ac1d;fill-opacity:1;stroke:none;stroke-width:3.20793629;stroke-linecap:round;stroke-linejoin:round;stroke-miterlimit:4;stroke-dasharray:none;stroke-opacity:1"
       d="m -86.73963,133.56598 a 50,50 0 0 0 0,70.71075 l 35.355375,-35.35537 z"
       id="path884"
       inkscape:connector-curvature="0" />
    <text
       id="text888"
       y="179.51331"
       x="-92.677681"
       style="font-style:normal;font-weight:normal;font-size:7.05555534px;line-height:125%;font-family:sans-serif;letter-spacing:0px;word-spacing:0px;fill:#000000;fill-opacity:1;stroke:none;stroke-width:0.26458332px;stroke-linecap:butt;stroke-linejoin:miter;stroke-opacity:1"
       xml:space="preserve"><tspan
         style="font-size:38.80555725px;stroke-width:0.26458332px"
         y="179.51331"
         x="-92.677681"
         id="tspan886"
         sodipodi:role="line">a</tspan></text>
    <text
       xml:space="preserve"
       style="font-style:normal;font-weight:normal;font-size:7.05555534px;line-height:125%;font-family:sans-serif;letter-spacing:0px;word-spacing:0px;fill:#000000;fill-opacity:1;stroke:none;stroke-width:0.26458332px;stroke-linecap:butt;stroke-linejoin:miter;stroke-opacity:1"
       x="-62.987335"
       y="151.97395"
       id="text892"><tspan
         sodipodi:role="line"
         id="tspan890"
         x="-62.987335"
         y="151.97395"
         style="font-size:38.80555725px;stroke-width:0.26458332px">b</tspan></text>
    <text
       id="text896"
       y="179.51331"
       x="-29.091198"
       style="font-style:normal;font-weight:normal;font-size:7.05555534px;line-height:125%;font-family:sans-serif;letter-spacing:0px;word-spacing:0px;fill:#000000;fill-opacity:1;stroke:none;stroke-width:0.26458332px;stroke-linecap:butt;stroke-linejoin:miter;stroke-opacity:1"
       xml:space="preserve"><tspan
         style="font-size:38.80555725px;stroke-width:0.26458332px"
         y="179.51331"
         x="-29.091198"
         id="tspan894"
         sodipodi:role="line">c</tspan></text>
    <text
       xml:space="preserve"
       style="font-style:normal;font-weight:normal;font-size:7.05555534px;line-height:125%;font-family:sans-serif;letter-spacing:0px;word-spacing:0px;fill:#000000;fill-opacity:1;stroke:none;stroke-width:0.26458332px;stroke-linecap:butt;stroke-linejoin:miter;stroke-opacity:1"
       x="-61.594654"
       y="214.80196"
       id="text900"><tspan
         sodipodi:role="line"
         id="tspan898"
         x="-61.594654"
         y="214.80196"
         style="font-size:38.80555725px;stroke-width:0.26458332px">d</tspan></text>
  </g>
</svg>
